# xmcd
# 
# Track frame offsets:
#     150
#     19607
#     40942
#     55970
#     66787
#     77465
#     91617
#     102285
#     117857
#     131847
#     143565
#     157235
#     169357
#     182387
#     190777
#     204980
#     215132
#     227337
#     243055
# 
# Disc length: 3392
# 
# Revision: 2
# Processed by: cddbd v1.5.2PL0 Copyright (c) Steve Scherf et al.
# Submitted via: BonkEnc v1.0.5
# 
DISCID=f60d3e13
DTITLE=バーズ - 懐かしの青春ドラマ主題歌集 2
DYEAR=1995
DGENRE=Soundtrack
TTITLE0=バーズ/アテンション・プリ-ズ
TTITLE1=バーズ/恋かしらなぜかしら
TTITLE2=砂川啓介/俺は飛ぶ
TTITLE3=岡崎友紀/おくさまは18歳
TTITLE4=岡崎友紀/小さなお城
TTITLE5=佐々木早苗/プ-ルに賭けた青春
TTITLE6=河崎いち子/ハレンチ学園ソング
TTITLE7=麻田ルミ/おさな妻
TTITLE8=范文雀/あなたが憎めない
TTITLE9=いぬいなおみ/青春の丘
TTITLE10=いぬいなおみ/ワン・ツウ・アタック
TTITLE11=藤間文彦/ガッツ・ジュン
TTITLE12=藤間文彦/ひとりぼっちのマウンド
TTITLE13=ハニーナイツ/名雄高校応援歌
TTITLE14=桜木健一/太陽の恋人
TTITLE15=桜木健一/コンクリート・ジャングル
TTITLE16=バイオレッツ/レモンの天使
TTITLE17=バイオレッツ/波が愛を
TTITLE18=岡崎友紀/なんたって18歳!
EXTD=
EXTT0=
EXTT1=
EXTT2=
EXTT3=
EXTT4=
EXTT5=
EXTT6=
EXTT7=
EXTT8=
EXTT9=
EXTT10=
EXTT11=
EXTT12=
EXTT13=
EXTT14=
EXTT15=
EXTT16=
EXTT17=
EXTT18=
PLAYORDER=
